<svg t="1734491591688" class="icon" viewBox="0 0 1232 1024" version="1.1" xmlns="http://www.w3.org/2000/svg" p-id="6758" id="mx_n_1734491591689" data-darkreader-inline-fill="" width="200" height="200"><path d="M394.522132 244.978356a309.877887 309.877887 0 0 1 18.57519-14.112774h-385.826378v193.693347h209.506298C284.574485 360.052755 338.407573 295.752001 394.522132 244.978356zM27.270944 461.731163v201.101571h119.663564c-8.417839-71.018417 18.492149-138.426692 62.932746-201.101571h-182.59631zM256.30523 0.008741h-145.240508c-46.302487 0-83.898673 37.600557-83.898673 83.898673v109.685409h229.143552v-193.584082zM837.16237 893.803211c41.245665 0 75.502687-29.855795 82.517553-69.09971-64.812118 15.345293-132.137351 41.512273-192.355934 69.09971h109.838381zM578.136799 175.332318s35.511394-5.441438 87.792907 0.113636V0.004371H293.477465v193.688976h191.040373c29.986914-10.795464 61.424878-16.826937 93.618961-18.361029zM457.411171 882.081173c-18.159981-0.441434-36.114541-0.782343-53.391654-0.782344-7.819063 4.064689-15.659978 8.256126-23.457188 12.500011h76.848842v-11.717667zM921.065413 286.158461v-55.288509h-84.139058a402.989854 402.989854 0 0 1 48.286755 33.107546c0-0.004371 12.779731 8.640742 35.852303 22.180963zM921.065413 193.592823v-109.685409c0-46.302487-37.604927-83.898673-83.903043-83.898673h-133.959905V181.005399c15.786727 3.028849 32.478175 7.124132 49.720322 12.587424h168.142626z" p-id="6759" fill="#FFFFFF" data-darkreader-inline-fill="" style="--darkreader-inline-fill: #1c1d1d;"></path><path d="M1079.535828 537.889445V403.269575c-131.757105-48.693223-220.555258-108.846247-220.555258-108.846247-128.894341-103.116347-277.841146-80.201117-277.841146-80.201117-60.153023 2.862765-117.438911 22.915229-166.132135 63.011417-60.153023 54.431865-117.438911 126.035947-166.132135 194.777264C191.589266 552.21638 165.811272 641.010163 217.36726 735.533845c17.185329 31.507894 37.237794 57.285888 60.153023 83.063882 5.7299 5.734271 22.915229 31.507894 31.507895 31.507894a1252.689006 1252.689006 0 0 0-40.694965 23.024495c-9.554204-8.461546-21.101417-25.148623-25.769253-29.816459-25.327819-28.492157-47.486929-56.984314-66.4817-91.809519-9.440567-17.312078-16.490399-34.444959-21.46855-51.394275h-127.342766v109.790304c0 46.302487 37.600557 83.898673 83.903044 83.898673h122.998356C211.383863 907.964062 187.729997 923.422991 165.811272 938.895032h111.709011s74.471217-48.693223 146.079671-85.926647c48.693223 0 103.120717 2.862765 151.80957 2.862765a2208.100661 2208.100661 0 0 0-42.932729 28.173101c-12.517493-0.257867-25.192329-0.594406-37.89776-0.944057v10.734275h23.413482c-30.3759 20.681836-65.144286 45.262276-94.392563 68.015793h111.713382s209.099829-134.624241 383.820257-166.132135l-17.1897 2.862764c68.745688-17.1897 126.031576-31.507894 177.591935-42.963323v-146.084041c-57.670504 4.807696-113.28681 9.104029-158.470415 12.473787V521.119326c54.785886 7.364517 108.308659 13.190571 158.470415 16.770119zM303.298278 609.502269c-40.100559 0-68.745688-17.1897-68.745689-40.100559 0-22.915229 31.507894-40.100559 68.745689-40.100559 40.100559 0 68.745688 17.185329 68.745688 40.100559 2.862765 22.910859-28.645129 40.100559-68.745688 40.100559z m200.507164-211.962594l-143.221276-8.588294S423.599954 305.883128 443.652418 300.153228l85.931018 2.867136-25.777994 94.519311z m63.015788-91.656547l123.164441 2.867136v94.519311l-146.079671-5.734271 22.91523-91.652176z m65.878552 303.619141c-40.100559 0-68.745688-17.1897-68.745688-40.100559 0-22.915229 31.507894-40.100559 68.745688-40.100559 40.100559 0 68.745688 17.185329 68.745689 40.100559-0.004371 22.910859-31.512265 40.100559-68.745689 40.100559z m204.300874 18.588302c-13.400361 0.944057-20.98341 1.459791-20.983409 1.459792-5.734271-40.100559 5.7299-123.164441 5.7299-123.164441 6.958048 1.123253 13.911725 2.194058 20.861031 3.277975-2.950177 24.488657-9.073434 82.70112-5.607522 118.426674z" p-id="6760" fill="#FFFFFF" data-darkreader-inline-fill="" style="--darkreader-inline-fill: #1c1d1d;"></path></svg>